<svg xmlns="http://www.w3.org/2000/svg" viewBox="0 0 512 512">
  <defs>
    <linearGradient id="bg" x1="0" y1="0" x2="1" y2="1"><stop stop-color="#8b5cf6"/><stop offset=".55" stop-color="#3b82f6"/><stop offset="1" stop-color="#ec4899"/></linearGradient>
    <linearGradient id="duck" x1=".2" y1=".1" x2=".8" y2="1"><stop stop-color="#fde68a"/><stop offset="1" stop-color="#f59e0b"/></linearGradient>
  </defs>
  <rect width="512" height="512" rx="112" fill="#090817"/>
  <rect x="28" y="28" width="456" height="456" rx="96" fill="url(#bg)" opacity=".95"/>
  <path d="M153 293c-7-78 42-135 111-135 59 0 103 40 103 98 0 19-5 37-14 52 28 19 44 48 44 81H114c0-42 14-75 39-96z" fill="url(#duck)"/>
  <circle cx="307" cy="224" r="12" fill="#171329"/>
  <path d="M331 249c41-4 72 8 76 28-5 25-44 35-88 17z" fill="#f97316"/>
  <path d="M203 158c-10-34 3-65 30-78 23 20 27 51 12 78z" fill="#fde68a"/>
  <path d="M166 329c34 26 116 33 169 0" fill="none" stroke="#fff" stroke-opacity=".45" stroke-width="12" stroke-linecap="round"/>
</svg>
